<?xml version="1.0" encoding="UTF-8"?>
<svg xmlns="http://www.w3.org/2000/svg" width="337" height="120" viewBox="0 0 337 120" fill="none">
<g clip-path="url(#clip0_246_1523)">
<path d="M109.302 51.4307H109.329L96.7563 58.6137L91.1948 61.7746L88.5329 63.2896L84.7563 65.4468L82.0905 66.9849L78.3101 69.1344L75.6481 70.6726L57.5097 81.001L39.3713 70.6726L36.7094 69.1575L35.4544 68.4423L32.925 67.008L30.2632 65.493L26.4788 63.3357L23.8247 61.8246H23.8052L18.2592 58.6137L5.67458 51.4461L0 48.2084V86.4344L57.5019 120L115 86.8382V48.1853L109.302 51.4307ZM109.692 81.1779L57.5019 110.91L5.30045 81.1779V74.9601L57.498 104.684L109.696 74.9601L109.692 81.1779ZM109.692 66.2082L57.4941 95.9438L5.30045 66.2082V59.9827L57.498 89.7106L109.696 59.9827L109.692 66.2082Z" fill="#0466C8"/>
<path d="M57.498 0L0 32.7542V42.1867L57.498 74.8717L115 42.1867V32.7542L57.498 0ZM88.529 24.7329L75.8703 31.9467L72.0859 29.7741L84.7446 22.5757L88.529 24.7329ZM82.0866 21.0645L69.4318 28.2744L65.6475 26.1172L78.2983 18.915L82.0866 21.0645ZM46.332 36.5879L47.3727 35.9881L57.5058 30.2201L68.6679 36.5803L57.5058 42.9404L57.4746 42.9211L50.9933 39.2297L46.332 36.5879ZM47.6494 12.6779L57.498 7.0638L75.6403 17.3961L62.9855 24.6099L57.498 21.4875L52.0144 24.6099L39.3596 17.3961L47.6494 12.6779ZM36.6977 18.915L49.3564 26.1172L45.576 28.2744L32.9133 21.0607L36.6977 18.915ZM30.2593 22.5872L42.9062 29.7741L39.1297 31.9351L26.4749 24.7214L30.2593 22.5872ZM18.2592 43.7594L5.67068 36.5879L23.8091 26.2518L36.4678 33.4579L30.9842 36.5879L36.4678 39.7103L23.8208 46.9241L18.2592 43.7594ZM26.4749 48.4353L39.1336 41.2254L42.9062 43.3787L30.2593 50.5886L26.4749 48.4353ZM32.9172 52.1075L45.576 44.8976L49.3564 47.051L36.7016 54.2571L32.9172 52.1075ZM57.498 66.1082L39.3596 55.7759L52.0144 48.5622L57.498 51.6922L62.9855 48.5622L75.6365 55.7759L57.498 66.1082ZM78.2983 54.2571L65.6475 47.051L69.4318 44.8976L82.0788 52.1075L78.2983 54.2571ZM84.7407 50.5886L72.0859 43.3787L75.8703 41.2254L88.5173 48.4353L84.7407 50.5886ZM96.7563 43.7594L91.1948 46.9241L78.5361 39.7103L84.0275 36.5879L78.5361 33.4579L91.1948 26.2518L109.337 36.5879L96.7563 43.7594Z" fill="#0466C8"/>
<g clip-path="url(#clip1_246_1523)">
<path d="M172.287 20H163.178V63.0818H172.287V20Z" fill="#0466C8"/>
<path d="M149.944 20.219L148.233 30.48L145.273 48.4979L141.68 26.6524L140.599 20.2222H131C131.172 21.0886 131.347 21.9551 131.518 22.8215L132.952 30.3848L133.27 32.1368L138.621 60.3269C138.78 61.1933 138.939 62.0567 139.095 62.9231H151.394L154.98 44.0577L156.313 37.0563L159.012 22.8215L159.038 22.7549L159.521 20.2158L149.944 20.219Z" fill="#0466C8"/>
<path d="M200.093 38.8177L186.859 35.5296V30.4515C186.859 30.1939 186.962 29.9468 187.144 29.7647C187.327 29.5826 187.574 29.4803 187.832 29.4803H192.831C193.089 29.4803 193.336 29.5826 193.519 29.7647C193.701 29.9468 193.804 30.1939 193.804 30.4515V34.0855H202.91V24.2275C202.91 23.2073 202.504 22.2289 201.781 21.5075C201.058 20.7861 200.078 20.3809 199.056 20.3809H181.651C180.617 20.3809 179.626 20.7908 178.895 21.5205C178.164 22.2503 177.753 23.24 177.753 24.272V38.6114C177.753 39.6398 178.097 40.6388 178.73 41.4497C179.364 42.2605 180.251 42.8367 181.25 43.0866L194.484 46.3746V53.0238C194.484 53.2814 194.381 53.5285 194.199 53.7106C194.017 53.8927 193.769 53.995 193.511 53.995H187.689C187.561 53.9955 187.434 53.9707 187.316 53.9221C187.197 53.8734 187.09 53.802 186.999 53.7118C186.908 53.6215 186.836 53.5143 186.787 53.3962C186.738 53.2782 186.713 53.1516 186.713 53.0238V48.2091H177.604V59.2383C177.604 60.2579 178.011 61.2355 178.733 61.9562C179.456 62.677 180.436 63.0818 181.457 63.0818H199.695C200.207 63.0818 200.714 62.9811 201.187 62.7856C201.66 62.59 202.09 62.3034 202.452 61.9421C202.814 61.5807 203.101 61.1518 203.297 60.6797C203.493 60.2076 203.593 59.7017 203.593 59.1907V43.2897C203.593 42.2614 203.248 41.2628 202.614 40.4525C201.98 39.6422 201.092 39.0668 200.093 38.8177Z" fill="#0466C8"/>
<path d="M226.585 20.3777V53.0207C226.585 53.1485 226.56 53.275 226.511 53.3931C226.462 53.5111 226.39 53.6184 226.299 53.7086C226.209 53.7988 226.101 53.8703 225.983 53.9189C225.864 53.9675 225.737 53.9923 225.609 53.9919H218.741C218.613 53.9923 218.486 53.9675 218.368 53.9189C218.25 53.8703 218.142 53.7988 218.051 53.7086C217.961 53.6184 217.889 53.5111 217.84 53.3931C217.791 53.275 217.765 53.1485 217.765 53.0207V20.3809C216.023 20.3809 210.405 20.3808 208.662 20.4157V59.1907C208.662 59.7015 208.762 60.2074 208.958 60.6795C209.153 61.1516 209.44 61.5805 209.802 61.9419C210.164 62.3033 210.593 62.5899 211.066 62.7855C211.539 62.9811 212.045 63.0818 212.557 63.0818H231.838C232.859 63.0818 233.839 62.6768 234.561 61.956C235.283 61.2352 235.689 60.2576 235.689 59.2383V20.3777H226.585Z" fill="#0466C8"/>
<path d="M262.817 20H245.142C244.113 20.0025 243.127 20.4122 242.4 21.1393C241.674 21.8664 241.266 22.8515 241.266 23.8784V63.0818H250.448V52.7763V48.2472H257.571V63.0818C259.329 63.0818 264.998 63.0627 266.756 63.0469V23.9292C266.757 23.4128 266.655 22.9014 266.457 22.4243C266.259 21.9472 265.969 21.5137 265.603 21.1487C265.237 20.7838 264.803 20.4944 264.325 20.2973C263.847 20.1002 263.334 19.9992 262.817 20ZM257.564 39.9952H250.439V30.1563C250.439 30.0273 250.464 29.8995 250.514 29.7803C250.563 29.6611 250.636 29.5528 250.728 29.4616C250.819 29.3705 250.928 29.2984 251.047 29.2493C251.167 29.2002 251.295 29.1752 251.424 29.1756H256.582C256.842 29.1756 257.092 29.2789 257.276 29.4628C257.461 29.6467 257.564 29.8962 257.564 30.1563V39.9952Z" fill="#0466C8"/>
<path d="M281.529 54.0237V20.0286H272.426V63.1104H294.89V54.0237H281.529Z" fill="#0466C8"/>
<path d="M270.238 69.3787H254.846V99.9999H270.238C270.973 99.9999 271.677 99.7087 272.196 99.1903C272.716 98.6719 273.008 97.9687 273.008 97.2355V72.1431C273.008 71.4099 272.716 70.7068 272.196 70.1884C271.677 69.67 270.973 69.3787 270.238 69.3787ZM266.537 92.8651C266.537 93.0486 266.464 93.2246 266.334 93.3544C266.204 93.4841 266.028 93.557 265.844 93.557H261.316V75.8534H265.844C266.028 75.8534 266.204 75.9262 266.334 76.056C266.464 76.1857 266.537 76.3617 266.537 76.5452V92.8651Z" fill="#0466C8"/>
<path d="M292.262 69.3787H279.668C279.304 69.3782 278.944 69.4495 278.608 69.5883C278.271 69.727 277.966 69.9306 277.709 70.1874C277.451 70.4442 277.247 70.7491 277.108 71.0847C276.969 71.4203 276.898 71.7799 276.898 72.1431V97.2451C276.898 97.9782 277.19 98.6814 277.71 99.1998C278.229 99.7182 278.933 100.009 279.668 100.009H292.262C292.988 100.009 293.685 99.7216 294.198 99.2091C294.711 98.6966 295 98.0016 295 97.2768V87.9457H288.526V92.8493C288.526 93.0328 288.453 93.2087 288.323 93.3385C288.193 93.4683 288.017 93.5412 287.833 93.5412H284.062C283.878 93.5404 283.703 93.4671 283.573 93.3376C283.443 93.208 283.37 93.0325 283.369 92.8493V76.5294C283.369 76.3458 283.442 76.1699 283.572 76.0401C283.702 75.9103 283.878 75.8375 284.062 75.8375H287.836C287.927 75.8375 288.017 75.8554 288.101 75.8902C288.185 75.925 288.261 75.976 288.325 76.0403C288.389 76.1046 288.44 76.1809 288.475 76.2648C288.509 76.3487 288.527 76.4386 288.526 76.5294V81.4298H295V72.1114C295 71.3866 294.711 70.6916 294.198 70.1791C293.685 69.6666 292.988 69.3787 292.262 69.3787Z" fill="#0466C8"/>
<path d="M146.981 82.7533L137.575 80.4236V76.8055C137.575 76.622 137.648 76.446 137.778 76.3162C137.908 76.1865 138.085 76.1135 138.269 76.1135H141.82C142.004 76.1144 142.18 76.1876 142.309 76.3172C142.439 76.4467 142.512 76.6222 142.513 76.8055V79.3953H148.984V72.3874C148.984 72.0283 148.914 71.6727 148.776 71.3407C148.639 71.0088 148.437 70.7072 148.183 70.4531C147.929 70.199 147.627 69.9974 147.295 69.8599C146.962 69.7224 146.606 69.6516 146.246 69.6516H133.874C133.51 69.6516 133.15 69.7232 132.814 69.8623C132.478 70.0014 132.172 70.2054 131.915 70.4624C131.658 70.7195 131.454 71.0246 131.315 71.3603C131.176 71.6961 131.105 72.0559 131.105 72.4192V82.6104C131.106 83.3407 131.352 84.0498 131.803 84.6249C132.254 85.1999 132.884 85.608 133.595 85.7842L143 88.1202V92.846C143 93.0295 142.927 93.2055 142.797 93.3353C142.667 93.465 142.49 93.538 142.307 93.538H138.173C137.99 93.5372 137.814 93.4639 137.684 93.3344C137.554 93.2048 137.481 93.0293 137.48 92.846V89.4247H131V97.2641C131 97.6231 131.07 97.9786 131.208 98.3103C131.345 98.642 131.547 98.9435 131.801 99.1973C132.055 99.4511 132.357 99.6524 132.689 99.7896C133.022 99.9268 133.378 99.9971 133.738 99.9967H146.701C147.065 99.9967 147.425 99.9253 147.761 99.7863C148.097 99.6474 148.402 99.4438 148.659 99.1871C148.916 98.9304 149.12 98.6256 149.259 98.2902C149.399 97.9548 149.47 97.5953 149.47 97.2323V85.9303C149.47 85.1994 149.225 84.4896 148.773 83.9139C148.322 83.3381 147.691 82.9296 146.981 82.7533Z" fill="#0466C8"/>
<path d="M170.465 69.3152L165.231 85.5018L160.001 69.3152H153.158V100.013H159.629V83.1373L161.295 89.485L161.397 89.8722L162.3 93.3253L162.71 94.9122H167.756L168.166 93.3253L169.578 87.8822L171.062 82.1693V100.016H177.533V69.3152H170.465Z" fill="#0466C8"/>
<path d="M196.897 69.3787H184.331C183.6 69.3795 182.898 69.6701 182.381 70.1867C181.865 70.7032 181.574 71.4034 181.574 72.1335V99.9999H188.099V89.4564H193.164V99.9999C194.417 99.9999 198.445 100 199.695 99.9746V72.1717C199.695 71.4309 199.4 70.7205 198.875 70.1967C198.35 69.6729 197.639 69.3787 196.897 69.3787ZM193.164 83.5975H188.099V76.615C188.099 76.5231 188.117 76.432 188.152 76.3471C188.188 76.2622 188.239 76.1851 188.305 76.1202C188.37 76.0553 188.448 76.0039 188.533 75.969C188.618 75.9341 188.709 75.9164 188.801 75.9168H192.464C192.65 75.9168 192.828 75.9904 192.959 76.1213C193.09 76.2523 193.164 76.4299 193.164 76.615V83.5975Z" fill="#0466C8"/>
<path d="M224.664 69.6484V75.3614H231.185V99.9935H237.656V75.3614H244.177V69.6484H224.664Z" fill="#0466C8"/>
<path d="M244.18 69.6484H224.664V75.3677H244.18V69.6484Z" fill="#0466C8"/>
<path d="M223.517 98.1528L219.157 88.9105L218.715 87.9584H219.033C219.392 87.9605 219.748 87.8917 220.079 87.756C220.411 87.6204 220.713 87.4206 220.967 87.1681C221.221 86.9155 221.423 86.6153 221.56 86.2847C221.698 85.954 221.768 85.5995 221.768 85.2415V72.3399C221.768 71.9849 221.699 71.6333 221.563 71.3053C221.427 70.9772 221.228 70.6791 220.976 70.428C220.725 70.1768 220.427 69.9776 220.098 69.8416C219.77 69.7057 219.418 69.6357 219.062 69.6357H203.686V99.9872H210.156V88.2599H211.863L215.323 95.9755L216.305 98.1972L217.116 100.019H224.391L223.517 98.1528ZM215.294 81.7598C215.294 81.8399 215.278 81.9191 215.248 81.9931C215.217 82.067 215.172 82.1341 215.115 82.1907C215.059 82.2473 214.991 82.2922 214.917 82.3228C214.843 82.3535 214.764 82.3692 214.684 82.3692H210.156V76.1072H214.684C214.846 76.1072 215.001 76.1714 215.115 76.2857C215.23 76.4 215.294 76.555 215.294 76.7166V81.7598Z" fill="#0466C8"/>
</g>
</g>
<defs>
<clipPath id="clip0_246_1523">
<rect width="337" height="120" fill="white"/>
</clipPath>
<clipPath id="clip1_246_1523">
<rect width="164" height="80" fill="white" transform="translate(131 20)"/>
</clipPath>
</defs>
</svg>