<?xml version="1.0" encoding="UTF-8"?>
<svg xmlns="http://www.w3.org/2000/svg" width="420" height="160" viewBox="0 0 420 160" fill="none">
<g clip-path="url(#clip0_208_844)">
<path d="M145.736 68.5744H145.772L129.008 78.1517L121.593 82.3661L118.044 84.3862L113.008 87.2625L109.454 89.3133L104.413 92.1793L100.864 94.2301L76.6797 108.001L52.4951 94.2301L48.9459 92.2101L47.2726 91.2565L43.9001 89.3441L40.3509 87.324L35.3051 84.4477L31.7662 82.4328H31.7403L24.3456 78.1517L7.56611 68.5949L0 64.2779V115.246L76.6693 160L153.333 115.784V64.2471L145.736 68.5744ZM146.256 108.237L76.6693 147.88L7.06727 108.237V99.9468L76.6641 139.579L146.261 99.9468L146.256 108.237ZM146.256 88.2776L76.6589 127.925L7.06727 88.2776V79.9769L76.6641 119.614L146.261 79.9769L146.256 88.2776Z" fill="#0466C8"/>
<path d="M76.6641 0L0 43.6722V56.2489L76.6641 99.8289L153.333 56.2489V43.6722L76.6641 0ZM118.039 32.9772L101.16 42.5956L96.1145 39.6988L112.993 30.1009L118.039 32.9772ZM109.449 28.086L92.5758 37.6992L87.53 34.8229L104.398 25.22L109.449 28.086ZM61.7761 48.7839L63.1635 47.9841L76.6745 40.2935L91.5573 48.7737L76.6745 57.2538L76.6328 57.2282L67.9911 52.3062L61.7761 48.7839ZM63.5325 16.9039L76.6641 9.4184L100.854 23.1948L83.9807 32.8131L76.6641 28.65L69.3525 32.8131L52.4795 23.1948L63.5325 16.9039ZM48.9303 25.22L65.8085 34.8229L60.768 37.6992L43.8845 28.0809L48.9303 25.22ZM40.3457 30.1163L57.2083 39.6988L52.1729 42.5802L35.2999 32.9618L40.3457 30.1163ZM24.3456 58.3459L7.56091 48.7839L31.7455 35.0024L48.6237 44.6105L41.3122 48.7839L48.6237 52.9471L31.761 62.5654L24.3456 58.3459ZM35.2999 64.5804L52.1781 54.9671L57.2083 57.8383L40.3457 67.4515L35.2999 64.5804ZM43.8897 69.4767L60.768 59.8635L65.8085 62.7346L48.9355 72.3427L43.8897 69.4767ZM76.6641 88.1443L52.4795 74.3679L69.3525 64.7496L76.6641 68.923L83.9807 64.7496L100.849 74.3679L76.6641 88.1443ZM104.398 72.3427L87.53 62.7346L92.5758 59.8635L109.438 69.4767L104.398 72.3427ZM112.988 67.4515L96.1145 57.8383L101.16 54.9671L118.023 64.5804L112.988 67.4515ZM129.008 58.3459L121.593 62.5654L104.715 52.9471L112.037 48.7839L104.715 44.6105L121.593 35.0024L145.783 48.7839L129.008 58.3459Z" fill="#0466C8"/>
<path d="M186.053 42.2634C186.551 46.7463 187.052 51.2312 187.556 55.7179L189.935 33.3559H201.814L196.261 74.0022H178.975L173.332 33.3842H185.234L185.795 39.1981L186.053 42.2634Z" fill="#0A0A0A"/>
<path d="M217.75 74.0022H204.85V33.3559H217.75V74.0022Z" fill="#0A0A0A"/>
<path d="M233.895 42.2634V49.3385C233.895 50.266 234.186 50.7298 234.77 50.7298H244.989C247.981 50.7298 249.476 53.1296 249.476 57.9292V66.7066C249.476 71.5553 247.981 73.9778 244.989 73.974H225.694C222.564 73.974 220.998 71.5516 220.994 66.7066V60.9606H233.895V66.7066C233.895 67.719 234.209 68.2223 234.837 68.2223H235.774C236.402 68.2223 236.716 67.7416 236.716 66.7745V58.0537C236.716 57.1318 236.402 56.6681 235.774 56.6681V56.6002H225.627C222.538 56.6002 220.992 54.1796 220.988 49.3385V40.6855C220.988 35.784 222.555 33.3333 225.689 33.3333H244.989C247.981 33.3333 249.476 35.735 249.476 40.5385V46.4089H236.699V40.6855C236.699 39.6732 236.385 39.1698 235.757 39.1698H233.822L233.895 42.2634Z" fill="#0A0A0A"/>
<path d="M265.755 66.7066C265.755 67.7189 266.064 68.2223 266.692 68.2223H267.634C268.257 68.2223 268.571 67.7416 268.571 66.7745V33.3559H281.354V66.7236C281.354 71.5723 279.858 73.9947 276.867 73.9909H257.572C254.442 73.9909 252.877 71.5685 252.877 66.7236V33.3559H265.778L265.755 66.7066Z" fill="#0A0A0A"/>
<path d="M300.368 74.0022V56.6963H297.609V74.0022H284.641V40.561C284.641 35.7576 286.207 33.3559 289.341 33.3559H308.636C311.68 33.3559 313.203 35.7576 313.207 40.561V74.0022H300.368ZM297.564 42.2916V50.7749H300.368V40.6855C300.368 39.6731 300.054 39.1698 299.426 39.1698H297.53L297.564 42.2916Z" fill="#0A0A0A"/>
<path d="M329.439 66.7067C329.439 67.7191 329.753 68.2224 330.375 68.2224H341.717V74.0024H321.165C318.036 74.0024 316.471 71.5799 316.471 66.735V33.3673H329.439V66.7067Z" fill="#0A0A0A"/>
<path d="M186.283 94.9277V101.997C186.283 102.925 186.575 103.388 187.164 103.388H197.372C200.363 103.388 201.859 105.788 201.859 110.588V119.371C201.859 124.212 200.363 126.633 197.372 126.633H178.077C174.947 126.633 173.38 124.212 173.377 119.371V113.631H186.277V119.382C186.277 120.389 186.591 120.898 187.22 120.898H188.156C188.785 120.898 189.099 120.412 189.099 119.444V110.729C189.099 109.802 188.785 109.338 188.156 109.338V109.276H178.01C174.917 109.276 173.371 106.853 173.371 102.008V93.3555C173.371 88.4729 174.938 86.0221 178.071 86.0033H197.366C200.358 86.0033 201.853 88.4031 201.853 93.2028V99.0789H189.076V93.3555C189.076 92.3488 188.762 91.8398 188.134 91.8398H186.238L186.283 94.9277Z" fill="#0A0A0A"/>
<path d="M218.114 94.9277V126.633H205.213V86.0316H244.801C247.893 86.0316 249.44 88.4521 249.44 93.2933V126.661H236.539V93.2311C236.539 92.3036 236.247 91.8398 235.664 91.8398H233.723V126.644H220.94V93.1745C220.94 92.8215 220.802 92.4829 220.555 92.2327C220.308 91.9826 219.972 91.8413 219.622 91.8398H218.085L218.114 94.9277Z" fill="#0A0A0A"/>
<path d="M268.404 126.644V109.338H265.644V126.644H252.682V93.2311C252.682 88.4276 254.247 86.0278 257.376 86.0316H276.671C279.719 86.0316 281.243 88.4314 281.243 93.2311V126.644H268.404ZM265.599 94.939V103.422H268.404V93.3555C268.404 92.3488 268.09 91.8398 267.461 91.8398H265.537C265.554 92.8748 265.571 93.9041 265.582 94.9277L265.599 94.939Z" fill="#0A0A0A"/>
<path d="M308.496 86.0316C311.54 86.0316 313.064 88.4314 313.067 93.2311V102.008C313.067 106.812 311.585 109.263 308.62 109.361L314.946 126.667H301.979L297.491 114.094V126.667H284.523V86.0316H308.496ZM297.407 94.9277V103.411H299.404C299.965 103.411 300.217 102.947 300.217 102.02V93.3668C300.217 92.3601 299.903 91.8511 299.281 91.8511H297.334L297.407 94.9277Z" fill="#0A0A0A"/>
<path d="M336.565 126.644H323.665V91.8398H316.373V86.0316H343.745V91.8398H336.526L336.565 126.644Z" fill="#0A0A0A"/>
<path d="M359.68 86.0316H383.669C386.661 86.0316 388.156 88.4314 388.156 93.2311V119.382C388.156 124.223 386.661 126.644 383.669 126.644H359.68V86.0316ZM372.58 94.939V120.83H374.459C375.082 120.83 375.396 120.327 375.396 119.314V93.3555C375.396 92.3488 375.082 91.8398 374.459 91.8398H372.592L372.58 94.939Z" fill="#0A0A0A"/>
<path d="M404.402 119.382C404.402 120.389 404.716 120.898 405.345 120.898H406.281C406.91 120.898 407.224 120.412 407.224 119.444V111.295H420.001V119.382C420.001 124.223 418.477 126.644 415.429 126.644H396.196C393.067 126.644 391.5 124.223 391.496 119.382V93.3668C391.496 88.4842 393.063 86.0334 396.196 86.0146H415.514C418.505 86.0146 420.001 88.4144 420.001 93.2141V101.426H407.224V93.3385C407.224 92.3318 406.91 91.8228 406.281 91.8228H404.475L404.402 119.382Z" fill="#0A0A0A"/>
</g>
<defs>
<clipPath id="clip0_208_844">
<rect width="420" height="160" fill="white"/>
</clipPath>
</defs>
</svg>