<?xml version="1.0" encoding="UTF-8"?>
<svg width="472" height="180" viewBox="0 0 472 180" fill="none" xmlns="http://www.w3.org/2000/svg">
<g clip-path="url(#clip0_208_844)">
<path d="M163.779 77.1462H163.82L144.981 87.9207L136.647 92.6619L132.659 94.9345L127 98.1703L123.005 100.477L117.341 103.702L113.352 106.009L86.1733 121.502L58.9945 106.009L55.0059 103.736L53.1254 102.664L49.3353 100.512L45.3467 98.2395L39.6762 95.0037L35.6992 92.7369H35.67L27.3599 87.9207L8.50287 77.1692L0 72.3126V129.652L86.1616 180L172.317 130.257V72.278L163.779 77.1462ZM164.363 121.767L86.1616 166.365L7.94226 121.767V112.44L86.1558 157.026L164.369 112.44L164.363 121.767ZM164.363 99.3123L86.1499 143.916L7.94226 99.3123V89.974L86.1558 134.566L164.369 89.974L164.363 99.3123Z" fill="#0466C8"/>
<path d="M86.1558 0L0 49.1313V63.28L86.1558 112.308L172.317 63.28V49.1313L86.1558 0ZM132.653 37.0994L113.685 47.92L108.014 44.6611L126.982 33.8636L132.653 37.0994ZM123 31.5968L104.038 42.4116L98.367 39.1758L117.323 28.3725L123 31.5968ZM69.4245 54.8819L70.9838 53.9821L86.1675 45.3302L102.893 54.8704L86.1675 64.4105L86.1207 64.3817L76.409 58.8445L69.4245 54.8819ZM71.3984 19.0169L86.1558 10.5957L113.34 26.0941L94.3783 36.9148L86.1558 32.2312L77.939 36.9148L58.977 26.0941L71.3984 19.0169ZM54.9883 28.3725L73.9563 39.1758L68.2916 42.4116L49.3178 31.591L54.9883 28.3725ZM45.3409 33.8809L64.2912 44.6611L58.6324 47.9027L39.6703 37.0821L45.3409 33.8809ZM27.3599 65.6391L8.49702 54.8819L35.6759 39.3777L54.6438 50.1868L46.4271 54.8819L54.6438 59.5655L35.6934 70.3861L27.3599 65.6391ZM39.6703 72.6529L58.6383 61.838L64.2912 65.0681L45.3409 75.883L39.6703 72.6529ZM49.3236 78.1613L68.2916 67.3464L73.9563 70.5765L54.9942 81.3856L49.3236 78.1613ZM86.1558 99.1624L58.977 83.6639L77.939 72.8433L86.1558 77.5384L94.3783 72.8433L113.335 83.6639L86.1558 99.1624ZM117.323 81.3856L98.367 70.5765L104.038 67.3464L122.988 78.1613L117.323 81.3856ZM126.977 75.883L108.014 65.0681L113.685 61.838L132.635 72.6529L126.977 75.883ZM144.981 65.6391L136.647 70.3861L117.679 59.5655L125.908 54.8819L117.679 50.1868L136.647 39.3777L163.832 54.8819L144.981 65.6391Z" fill="#0466C8"/>
<path d="M209.089 47.5463C209.648 52.5896 210.211 57.6351 210.778 62.6826L213.451 37.5254H226.802L220.561 83.2525H201.134L194.793 37.5572H208.169L208.799 44.0978L209.089 47.5463Z" fill="#0A0A0A"/>
<path d="M244.711 83.2525H230.213V37.5254H244.711V83.2525Z" fill="#0A0A0A"/>
<path d="M262.854 47.5464V55.5058C262.854 56.5493 263.182 57.071 263.837 57.071H275.322C278.684 57.071 280.365 59.7708 280.365 65.1704V75.045C280.365 80.4998 278.684 83.225 275.322 83.2208H253.638C250.121 83.2208 248.36 80.4955 248.356 75.045V68.5807H262.854V75.045C262.854 76.1839 263.207 76.7501 263.913 76.7501H264.965C265.671 76.7501 266.024 76.2093 266.024 75.1213V65.3104C266.024 64.2733 265.671 63.7516 264.965 63.7516V63.6753H253.563C250.091 63.6753 248.354 60.9521 248.35 55.5058V45.7712C248.35 40.2571 250.11 37.5 253.632 37.5H275.322C278.684 37.5 280.365 40.2019 280.365 45.6058V52.2101H266.005V45.7712C266.005 44.6323 265.653 44.0661 264.947 44.0661H262.772L262.854 47.5464Z" fill="#0A0A0A"/>
<path d="M298.658 75.0449C298.658 76.1838 299.005 76.7501 299.711 76.7501H300.77C301.469 76.7501 301.822 76.2093 301.822 75.1213V37.5254H316.188V75.064C316.188 80.5188 314.507 83.2441 311.145 83.2398H289.461C285.944 83.2398 284.186 80.5145 284.186 75.064V37.5254H298.683L298.658 75.0449Z" fill="#0A0A0A"/>
<path d="M337.558 83.2525V63.7833H334.456V83.2525H319.883V45.6312C319.883 40.2273 321.644 37.5254 325.165 37.5254H346.849C350.269 37.5254 351.982 40.2273 351.986 45.6312V83.2525H337.558ZM334.406 47.5781V57.1218H337.558V45.7712C337.558 44.6323 337.205 44.066 336.499 44.066H334.368L334.406 47.5781Z" fill="#0A0A0A"/>
<path d="M370.226 75.045C370.226 76.1839 370.579 76.7502 371.278 76.7502H384.024V83.2526H360.928C357.411 83.2526 355.652 80.5274 355.652 75.0768V37.5382H370.226V75.045Z" fill="#0A0A0A"/>
<path d="M209.346 106.794V114.747C209.346 115.79 209.674 116.312 210.336 116.312H221.808C225.17 116.312 226.851 119.012 226.851 124.411V134.292C226.851 139.739 225.17 142.462 221.808 142.462H200.125C196.607 142.462 194.846 139.739 194.842 134.292V127.834H209.34V134.305C209.34 135.438 209.693 136.01 210.399 136.01H211.452C212.158 136.01 212.511 135.463 212.511 134.375V124.57C212.511 123.527 212.158 123.005 211.452 123.005V122.935H200.049C196.574 122.935 194.836 120.21 194.836 114.76V105.025C194.836 99.532 196.597 96.7749 200.118 96.7537H221.802C225.164 96.7537 226.845 99.4535 226.845 104.853V111.464H212.485V105.025C212.485 103.892 212.132 103.32 211.426 103.32H209.296L209.346 106.794Z" fill="#0A0A0A"/>
<path d="M245.119 106.794V142.462H230.621V96.7855H275.111C278.586 96.7855 280.323 99.5087 280.323 104.955V142.494H265.826V104.885C265.826 103.842 265.498 103.32 264.842 103.32H262.661V142.475H248.296V104.821C248.296 104.424 248.14 104.043 247.862 103.762C247.585 103.48 247.208 103.321 246.815 103.32H245.087L245.119 106.794Z" fill="#0A0A0A"/>
<path d="M301.635 142.475V123.005H298.534V142.475H283.967V104.885C283.967 99.4811 285.725 96.7813 289.243 96.7855H310.926C314.351 96.7855 316.064 99.4853 316.064 104.885V142.475H301.635ZM298.484 106.806V116.35H301.635V105.025C301.635 103.892 301.282 103.32 300.576 103.32H298.414C298.433 104.484 298.452 105.642 298.465 106.794L298.484 106.806Z" fill="#0A0A0A"/>
<path d="M346.691 96.7855C350.111 96.7855 351.824 99.4853 351.828 104.885V114.76C351.828 120.163 350.162 122.92 346.829 123.031L353.94 142.5H339.366L334.323 128.356V142.5H319.75V96.7855H346.691ZM334.229 106.794V116.337H336.473C337.103 116.337 337.387 115.816 337.387 114.772V105.038C337.387 103.905 337.034 103.333 336.334 103.333H334.147L334.229 106.794Z" fill="#0A0A0A"/>
<path d="M378.235 142.475H363.737V103.32H355.543V96.7855H386.304V103.32H378.191L378.235 142.475Z" fill="#0A0A0A"/>
<path d="M404.213 96.7855H431.173C434.534 96.7855 436.215 99.4853 436.215 104.885V134.305C436.215 139.751 434.534 142.475 431.173 142.475H404.213V96.7855ZM418.711 106.806V135.934H420.822C421.522 135.934 421.875 135.368 421.875 134.229V105.025C421.875 103.892 421.522 103.32 420.822 103.32H418.723L418.711 106.806Z" fill="#0A0A0A"/>
<path d="M454.473 134.305C454.473 135.438 454.826 136.01 455.532 136.01H456.585C457.291 136.01 457.643 135.463 457.643 134.375V125.207H472.003V134.305C472.003 139.751 470.29 142.474 466.865 142.474H445.251C441.734 142.474 439.973 139.751 439.969 134.305V105.038C439.969 99.5447 441.73 96.7876 445.251 96.7664H466.96C470.322 96.7664 472.003 99.4662 472.003 104.866V114.104H457.643V105.006C457.643 103.873 457.291 103.301 456.585 103.301H454.555L454.473 134.305Z" fill="#0A0A0A"/>
</g>
<defs>
<clipPath id="clip0_208_844">
<rect width="472" height="180" fill="white"/>
</clipPath>
</defs>
</svg>
