<?xml version="1.0" encoding="UTF-8"?>
<svg xmlns="http://www.w3.org/2000/svg" width="337" height="120" viewBox="0 0 337 120" fill="none">
<g clip-path="url(#clip0_243_1490)">
<path d="M109.302 51.4307H109.329L96.7563 58.6137L91.1948 61.7746L88.5329 63.2896L84.7563 65.4468L82.0905 66.9849L78.3101 69.1344L75.6481 70.6726L57.5097 81.001L39.3713 70.6726L36.7094 69.1575L35.4544 68.4423L32.925 67.008L30.2632 65.493L26.4788 63.3357L23.8247 61.8246H23.8052L18.2592 58.6137L5.67458 51.4461L0 48.2084V86.4344L57.5019 120L115 86.8382V48.1853L109.302 51.4307ZM109.692 81.1779L57.5019 110.91L5.30045 81.1779V74.9601L57.498 104.684L109.696 74.9601L109.692 81.1779ZM109.692 66.2082L57.4941 95.9438L5.30045 66.2082V59.9827L57.498 89.7106L109.696 59.9827L109.692 66.2082Z" fill="#0466C8"/>
<path d="M57.498 0L0 32.7542V42.1867L57.498 74.8717L115 42.1867V32.7542L57.498 0ZM88.529 24.7329L75.8703 31.9467L72.0859 29.7741L84.7446 22.5757L88.529 24.7329ZM82.0866 21.0645L69.4318 28.2744L65.6475 26.1172L78.2983 18.915L82.0866 21.0645ZM46.332 36.5879L47.3727 35.9881L57.5058 30.2201L68.6679 36.5803L57.5058 42.9404L57.4746 42.9211L50.9933 39.2297L46.332 36.5879ZM47.6494 12.6779L57.498 7.0638L75.6403 17.3961L62.9855 24.6099L57.498 21.4875L52.0144 24.6099L39.3596 17.3961L47.6494 12.6779ZM36.6977 18.915L49.3564 26.1172L45.576 28.2744L32.9133 21.0607L36.6977 18.915ZM30.2593 22.5872L42.9062 29.7741L39.1297 31.9351L26.4749 24.7214L30.2593 22.5872ZM18.2592 43.7594L5.67068 36.5879L23.8091 26.2518L36.4678 33.4579L30.9842 36.5879L36.4678 39.7103L23.8208 46.9241L18.2592 43.7594ZM26.4749 48.4353L39.1336 41.2254L42.9062 43.3787L30.2593 50.5886L26.4749 48.4353ZM32.9172 52.1075L45.576 44.8976L49.3564 47.051L36.7016 54.2571L32.9172 52.1075ZM57.498 66.1082L39.3596 55.7759L52.0144 48.5622L57.498 51.6922L62.9855 48.5622L75.6365 55.7759L57.498 66.1082ZM78.2983 54.2571L65.6475 47.051L69.4318 44.8976L82.0788 52.1075L78.2983 54.2571ZM84.7407 50.5886L72.0859 43.3787L75.8703 41.2254L88.5173 48.4353L84.7407 50.5886ZM96.7563 43.7594L91.1948 46.9241L78.5361 39.7103L84.0275 36.5879L78.5361 33.4579L91.1948 26.2518L109.337 36.5879L96.7563 43.7594Z" fill="#0466C8"/>
<path d="M140.541 31.6974C140.914 35.0597 141.29 38.4233 141.668 41.7883L143.452 25.0168H152.362L148.197 55.5016H135.232L131 25.038H139.927L140.347 29.3985L140.541 31.6974Z" fill="#0466C8"/>
<path d="M168.037 55.5019H158.361V25.0171H168.037V55.5019Z" fill="#0466C8"/>
<path d="M183.717 31.6976V37.0039C183.717 37.6995 183.936 38.0473 184.373 38.0473H192.038C194.281 38.0473 195.403 39.8472 195.403 43.4469V50.03C195.403 53.6665 194.281 55.4834 192.038 55.4805H177.567C175.219 55.4805 174.044 53.6637 174.041 50.03V45.7205H183.717V50.03C183.717 50.7893 183.952 51.1668 184.424 51.1668H185.126C185.597 51.1668 185.833 50.8062 185.833 50.0809V43.5403C185.833 42.8489 185.597 42.5011 185.126 42.5011V42.4502H177.516C175.2 42.4502 174.04 40.6347 174.037 37.0039V30.5141C174.037 26.838 175.212 25 177.562 25H192.038C194.281 25 195.403 26.8013 195.403 30.4039V34.8067H185.82V30.5141C185.82 29.7549 185.585 29.3774 185.113 29.3774H183.662L183.717 31.6976Z" fill="#0466C8"/>
<path d="M211.061 50.0301C211.061 50.7894 211.292 51.1669 211.764 51.1669H212.47C212.937 51.1669 213.173 50.8063 213.173 50.081V25.0171H222.76V50.0428C222.76 53.6794 221.638 55.4962 219.395 55.4934H204.923C202.576 55.4934 201.402 53.6765 201.402 50.0428V25.0171H211.078L211.061 50.0301Z" fill="#0466C8"/>
<path d="M240.555 55.5019V42.5224H238.486V55.5019H228.76V30.421C228.76 26.8184 229.935 25.0171 232.285 25.0171H246.756C249.039 25.0171 250.182 26.8184 250.185 30.421V55.5019H240.555ZM238.452 31.7189V38.0814H240.555V30.5143C240.555 29.755 240.32 29.3775 239.849 29.3775H238.427L238.452 31.7189Z" fill="#0466C8"/>
<path d="M265.911 50.0299C265.911 50.7892 266.147 51.1667 266.614 51.1667H275.12V55.5017H259.707C257.359 55.5017 256.186 53.6848 256.186 50.0511V25.0254H265.911V50.0299Z" fill="#0466C8"/>
<path d="M140.713 71.1933V76.4954C140.713 77.191 140.932 77.5389 141.374 77.5389H149.03C151.273 77.5389 152.395 79.3387 152.395 82.9385V89.5257C152.395 93.1566 151.273 94.972 149.03 94.972H134.559C132.211 94.972 131.036 93.1566 131.034 89.5257V85.2205H140.709V89.5342C140.709 90.2892 140.945 90.671 141.416 90.671H142.118C142.589 90.671 142.825 90.3062 142.825 89.5809V83.0445C142.825 82.3489 142.589 82.0011 142.118 82.0011V81.9544H134.508C132.189 81.9544 131.029 80.1376 131.029 76.5039V70.0141C131.029 66.3522 132.204 64.5141 134.555 64.5H149.026C151.269 64.5 152.391 66.2999 152.391 69.8996V74.3067H142.808V70.0141C142.808 69.2591 142.573 68.8774 142.101 68.8774H140.679L140.713 71.1933Z" fill="#0466C8"/>
<path d="M168.07 71.1721V94.9508H158.395V64.5H188.086C190.405 64.5 191.565 66.3154 191.565 69.9463V94.972H181.889V69.8996C181.889 69.204 181.67 68.8562 181.233 68.8562H179.777V94.9593H170.19V69.8572C170.19 69.5925 170.086 69.3385 169.901 69.1509C169.716 68.9633 169.464 68.8573 169.202 68.8562H168.049L168.07 71.1721Z" fill="#0466C8"/>
<path d="M209.356 94.9593V81.9799H207.286V94.9593H197.564V69.8996C197.564 66.2971 198.738 64.4972 201.085 64.5H215.557C217.842 64.5 218.985 66.2999 218.985 69.8996V94.9593H209.356ZM207.253 71.1806V77.5431H209.356V69.993C209.356 69.2379 209.12 68.8562 208.649 68.8562H207.206C207.219 69.6324 207.232 70.4044 207.24 71.1721L207.253 71.1806Z" fill="#0466C8"/>
<path d="M242.964 64.5C245.247 64.5 246.39 66.2999 246.392 69.8996V76.4827C246.392 80.0853 245.28 81.9233 243.056 81.9968L247.802 94.9763H238.076L234.71 85.5471V94.9763H224.984V64.5H242.964ZM234.647 71.1721V77.5346H236.145C236.565 77.5346 236.755 77.1868 236.755 76.4911V70.0014C236.755 69.2464 236.519 68.8647 236.052 68.8647H234.593L234.647 71.1721Z" fill="#0466C8"/>
<path d="M268.945 94.9593H259.27V68.8562H253.801V64.5H274.33V68.8562H268.916L268.945 94.9593Z" fill="#0466C8"/>
<path d="M288.512 64.5237H306.504C308.747 64.5237 309.869 66.3236 309.869 69.9233V89.5367C309.869 93.1676 308.747 94.983 306.504 94.983H288.512V64.5237ZM298.187 71.2043V90.6226H299.596C300.063 90.6226 300.299 90.2451 300.299 89.4858V70.0166C300.299 69.2616 300.063 68.8799 299.596 68.8799H298.196L298.187 71.2043Z" fill="#0466C8"/>
<path d="M325.549 89.5367C325.549 90.2918 325.784 90.6735 326.256 90.6735H326.958C327.429 90.6735 327.665 90.3087 327.665 89.5834V83.4712H337.248V89.5367C337.248 93.1676 336.105 94.983 333.819 94.983H319.394C317.047 94.983 315.872 93.1676 315.869 89.5367V70.0251C315.869 66.3632 317.044 64.5251 319.394 64.511H333.882C336.126 64.511 337.248 66.3109 337.248 69.9106V76.0695H327.665V70.0039C327.665 69.2489 327.429 68.8672 326.958 68.8672H325.603L325.549 89.5367Z" fill="#0466C8"/>
</g>
<defs>
<clipPath id="clip0_243_1490">
<rect width="337" height="120" fill="white"/>
</clipPath>
</defs>
</svg>